<svg id="Layer_1" data-name="Layer 1" xmlns="http://www.w3.org/2000/svg" viewBox="93 21 780 100"><defs></defs><polygon class="cls-1" points="127.09 66.54 133.23 66.54 133.23 84.09 130.05 84.09 130.05 69.27 129.19 69.27 122.45 84.09 118.79 84.09 112.04 69.27 111.21 69.27 111.21 84.09 108.03 84.09 108.03 66.54 114.16 66.54 120.68 80.94 127.09 66.54"/><path class="cls-1" d="M96.23,24.71h48.9V95.85H96.23ZM93.07,99h55.22V21.55H93.07Z"/><path class="cls-1" d="M166.59,66.62h16.49V84.27h-3.2V69.36H169.79V84.27h-3.2Z"/><path class="cls-1" d="M190.24,84.27H187V66.62h7c2.94,0,5.13.5,6.55,1.52a5.34,5.34,0,0,1,2.13,4.65,5.44,5.44,0,0,1-2.13,4.72c-1.42,1-3.61,1.55-6.55,1.55h-3.84Zm0-14.91v7h3.86a7.85,7.85,0,0,0,4.19-.84,3,3,0,0,0,1.27-2.72,2.86,2.86,0,0,0-1.27-2.63,8.22,8.22,0,0,0-4.19-.8Z"/><path class="cls-1" d="M205,75.41q0-4.72,2.62-7t8.1-2.22c3.66,0,6.36.74,8.12,2.22s2.63,3.8,2.63,7-.88,5.5-2.63,7-4.46,2.25-8.12,2.25-6.36-.75-8.1-2.25S205,78.57,205,75.41Zm4.95,5q1.78,1.49,5.77,1.49c2.68,0,4.6-.5,5.77-1.52s1.77-2.68,1.77-5-.59-4-1.77-5S218.41,69,215.72,69s-4.62.49-5.77,1.47-1.75,2.62-1.75,5S208.79,79.42,210,80.44Z"/><path class="cls-1" d="M243.49,66.62h5.71V84.27H246V69.41h-.84l-9.78,14.86h-5.71V66.62h3.2V81.45h.86Z"/><path class="cls-1" d="M268.28,74.64v.64q3.71.91,3.71,4.29,0,5.09-9.63,5.08c-3.28,0-5.74-.47-7.35-1.41a5.39,5.39,0,0,1-2.73-4.38h3.25c.23,2.07,2.5,3.1,6.78,3.1s6.43-.92,6.43-2.77-2.15-2.72-6.43-2.72h-4V73.75h4a12.16,12.16,0,0,0,4.41-.58,1.93,1.93,0,0,0,1.38-1.83q0-2.39-5.79-2.39a10.57,10.57,0,0,0-4.53.75,2.86,2.86,0,0,0-1.69,2.35h-3.23a5.46,5.46,0,0,1,2.57-4.41q2.28-1.4,6.93-1.4,8.92,0,8.92,4.8A3.47,3.47,0,0,1,268.28,74.64Z"/><path class="cls-1" d="M288.55,74.67v.41a4.07,4.07,0,0,1,3.05,4.21q0,5-6.83,5h-9.66V66.62h9.33a8.36,8.36,0,0,1,4.72,1.11A3.72,3.72,0,0,1,290.79,71a4.28,4.28,0,0,1-.52,2.19A4.17,4.17,0,0,1,288.55,74.67Zm-10.26-5.36v4.5h6.1a4,4,0,0,0,2.35-.56,2.15,2.15,0,0,0,.75-1.81,1.77,1.77,0,0,0-.81-1.62,4.8,4.8,0,0,0-2.52-.51Zm0,7.14v5.13h6.32a5.14,5.14,0,0,0,2.82-.6,2.18,2.18,0,0,0,.89-2c0-1.71-1.33-2.56-4-2.56Z"/><path class="cls-1" d="M294,75.41c0-3.15.88-5.47,2.62-7s4.44-2.22,8.1-2.22,6.37.74,8.12,2.22,2.63,3.8,2.63,7-.88,5.5-2.63,7-4.46,2.25-8.12,2.25-6.36-.75-8.1-2.25S294,78.57,294,75.41Zm5,5q1.77,1.49,5.76,1.49c2.68,0,4.6-.5,5.77-1.52s1.78-2.68,1.78-5-.59-4-1.78-5S307.38,69,304.68,69s-4.61.49-5.76,1.47-1.76,2.62-1.76,5S297.75,79.42,298.92,80.44Z"/><path class="cls-1" d="M335.85,66.62V81.55h1.73v7h-3.22V84.27H319.8v4.27h-3.23v-7h1.68c1.78-1.72,2.67-4.42,2.67-8.08V66.62Zm-11.71,2.74v4.11A15.14,15.14,0,0,1,322,81.55h10.65V69.36Z"/><path class="cls-1" d="M349.8,84.65c-3.61,0-6.25-.75-7.94-2.26s-2.53-3.85-2.53-7,.87-5.41,2.6-6.89,4.41-2.22,8.07-2.22q9.27,0,9.94,6.63h-3.15a3.8,3.8,0,0,0-1.91-3A10.07,10.07,0,0,0,350,69q-4.06,0-5.76,1.45t-1.71,4.95q0,3.56,1.68,5.06t5.64,1.49q6.81,0,7.14-4.42h3.2a6.81,6.81,0,0,1-3,5.33Q354.57,84.66,349.8,84.65Z"/><path class="cls-1" d="M371,84.27h-3.2V69.36h-6.48V66.62h16.18v2.74H371Z"/><path class="cls-1" d="M393.72,74.67v.41a4.06,4.06,0,0,1,3,4.21q0,5-6.83,5h-9.66V66.62h9.33a8.36,8.36,0,0,1,4.72,1.11A3.72,3.72,0,0,1,396,71a4.28,4.28,0,0,1-.52,2.19A4.17,4.17,0,0,1,393.72,74.67Zm-10.26-5.36v4.5h6.1a4,4,0,0,0,2.35-.56,2.12,2.12,0,0,0,.75-1.81,1.79,1.79,0,0,0-.8-1.62,4.87,4.87,0,0,0-2.53-.51Zm0,7.14v5.13h6.33a5.19,5.19,0,0,0,2.82-.6,2.2,2.2,0,0,0,.88-2c0-1.71-1.33-2.56-4-2.56Z"/><path class="cls-1" d="M399.13,75.41c0-3.15.88-5.47,2.62-7s4.45-2.22,8.1-2.22,6.37.74,8.12,2.22,2.63,3.8,2.63,7-.88,5.5-2.63,7-4.46,2.25-8.12,2.25-6.36-.75-8.1-2.25S399.13,78.57,399.13,75.41Zm5,5q1.77,1.49,5.76,1.49c2.68,0,4.6-.5,5.77-1.52s1.78-2.68,1.78-5-.59-4-1.78-5S412.55,69,409.85,69s-4.61.49-5.76,1.47-1.76,2.62-1.76,5S402.92,79.42,404.09,80.44Z"/></svg>