<svg id="Layer_1" data-name="Layer 1" xmlns="http://www.w3.org/2000/svg" viewBox="93 21 780 100"><defs></defs><polygon class="cls-1" points="127.09 66.54 133.23 66.54 133.23 84.09 130.05 84.09 130.05 69.27 129.19 69.27 122.45 84.09 118.79 84.09 112.04 69.27 111.21 69.27 111.21 84.09 108.03 84.09 108.03 66.54 114.16 66.54 120.68 80.94 127.09 66.54"/><path class="cls-1" d="M96.23,24.71h48.9V95.85H96.23ZM93.07,99h55.22V21.55H93.07Z"/><path class="cls-1" d="M172.13,69.23v4.09a15.1,15.1,0,0,1-2.14,8h10.58V69.23Zm11.65-2.72V81.36h1.71V88.3h-3.2V84.06H167.82V88.3h-3.21V81.36h1.67c1.76-1.72,2.65-4.4,2.65-8V66.51Z"/><polygon class="cls-1" points="204.71 84.06 190.39 84.06 190.39 66.5 204.54 66.5 204.54 69.21 193.57 69.21 193.57 73.6 203.68 73.6 203.68 76.3 193.57 76.3 193.57 81.38 204.71 81.38 204.71 84.06"/><path class="cls-1" d="M213.2,76.28v5.1h6.28a5.23,5.23,0,0,0,2.81-.59,2.19,2.19,0,0,0,.88-2q0-2.55-4-2.55Zm0-7.1v4.47h6.06a3.9,3.9,0,0,0,2.33-.55,2.09,2.09,0,0,0,.75-1.8,1.76,1.76,0,0,0-.8-1.61,4.78,4.78,0,0,0-2.51-.51Zm10.2,5.33v.41a4.05,4.05,0,0,1,3,4.19q0,5-6.79,5H210V66.51h9.27a8.31,8.31,0,0,1,4.7,1.11,3.7,3.7,0,0,1,1.61,3.25,4.14,4.14,0,0,1-.52,2.18,4,4,0,0,1-1.7,1.46"/><polygon class="cls-1" points="245.75 84.06 231.43 84.06 231.43 66.5 245.57 66.5 245.57 69.21 234.61 69.21 234.61 73.6 244.71 73.6 244.71 76.3 234.61 76.3 234.61 81.38 245.75 81.38 245.75 84.06"/><path class="cls-1" d="M253.42,66.51h14.9V84.06h-3.18V69.21h-8.56V73.5c0,3.75-.57,6.52-1.72,8.28a6,6,0,0,1-5.42,2.66V81.73a3.37,3.37,0,0,0,3-2.08,14.64,14.64,0,0,0,1-6.15Z"/><path class="cls-1" d="M278.32,80.24c1.18,1,3.09,1.49,5.74,1.49s4.57-.5,5.73-1.51,1.77-2.67,1.77-5-.59-3.95-1.77-4.92-3.06-1.47-5.73-1.47-4.59.49-5.74,1.47-1.74,2.6-1.74,4.92.58,4,1.74,5m-4.92-5q0-4.69,2.6-6.9c1.73-1.48,4.42-2.21,8.06-2.21s6.32.73,8.06,2.21,2.62,3.77,2.62,6.9-.87,5.47-2.62,7-4.43,2.24-8.06,2.24-6.33-.75-8.06-2.24-2.6-3.81-2.6-7"/><polygon class="cls-1" points="299.82 66.51 316.2 66.51 316.2 84.06 313.02 84.06 313.02 69.23 303 69.23 303 84.06 299.82 84.06 299.82 66.51"/><polygon class="cls-1" points="341.11 66.51 347.24 66.51 347.24 84.06 344.06 84.06 344.06 69.23 343.2 69.23 336.46 84.06 332.8 84.06 326.05 69.23 325.22 69.23 325.22 84.06 322.04 84.06 322.04 66.51 328.18 66.51 334.69 80.9 341.11 66.51"/><polygon class="cls-1" points="367.39 84.06 353.07 84.06 353.07 66.5 367.22 66.5 367.22 69.21 356.26 69.21 356.26 73.6 366.36 73.6 366.36 76.3 356.26 76.3 356.26 81.38 367.39 81.38 367.39 84.06"/><polygon class="cls-1" points="386.18 73.58 386.18 66.51 389.36 66.51 389.36 84.06 386.18 84.06 386.18 76.3 375.9 76.3 375.9 84.06 372.72 84.06 372.72 66.51 375.9 66.51 375.9 73.58 386.18 73.58"/><polygon class="cls-1" points="394.01 66.51 394.01 69.23 400.45 69.23 400.45 84.06 403.63 84.06 403.63 69.23 410.1 69.23 410.1 66.51 394.01 66.51"/></svg>