<svg id="Layer_1" data-name="Layer 1" xmlns="http://www.w3.org/2000/svg" viewBox="0 0 499.06 132.65"><defs></defs><polygon class="cls-1" points="127.09 66.54 133.23 66.54 133.23 84.09 130.05 84.09 130.05 69.27 129.19 69.27 122.45 84.09 118.79 84.09 112.04 69.27 111.21 69.27 111.21 84.09 108.03 84.09 108.03 66.54 114.16 66.54 120.68 80.94 127.09 66.54"/><path class="cls-1" d="M96.23,24.71h48.9V95.85H96.23ZM93.07,99h55.22V21.55H93.07Z"/><path class="cls-1" d="M166.59,84.23V66.58h13.74v2.74H169.82V84.23Z"/><path class="cls-1" d="M182.14,75.36q0-4.73,2.61-6.94t8.11-2.23c3.65,0,6.36.74,8.11,2.23s2.63,3.79,2.63,6.94-.87,5.5-2.63,7-4.46,2.25-8.11,2.25-6.36-.75-8.11-2.25S182.14,78.53,182.14,75.36Zm5,5q1.78,1.5,5.77,1.5c2.67,0,4.6-.5,5.76-1.52s1.78-2.69,1.78-5-.59-4-1.78-5-3.07-1.47-5.76-1.47-4.62.49-5.77,1.47-1.75,2.62-1.75,5S185.92,79.38,187.09,80.39Z"/><path class="cls-1" d="M210,84.23h-3.2V66.58h7c2.95,0,5.13.5,6.55,1.52a5.33,5.33,0,0,1,2.14,4.65,5.42,5.42,0,0,1-2.14,4.72c-1.42,1-3.6,1.55-6.55,1.55H210Zm0-14.91v7h3.87a7.91,7.91,0,0,0,4.19-.83,3,3,0,0,0,1.27-2.72,2.88,2.88,0,0,0-1.27-2.63,8.27,8.27,0,0,0-4.19-.8Z"/><path class="cls-1" d="M239.07,73.69V66.58h3.2V84.23h-3.2v-7.8H228.73v7.8h-3.2V66.58h3.2v7.11Z"/><path class="cls-1" d="M264.6,84.23h-3.28l-1.58-4.47H249.58L248,84.23h-3.25L251,66.58h7.47ZM253.27,69.32,250.55,77h8.25l-2.71-7.72Z"/><path class="cls-1" d="M275.54,66.58h7.63V84.23h-3.23V78.39h-2.21l-7.37,5.84h-4.52l7.42-6q-6-.77-6-5.94Q267.26,66.57,275.54,66.58Zm0,9.12h4.4V69.32h-4.4a7.83,7.83,0,0,0-3.84.7,2.46,2.46,0,0,0-1.19,2.3,2.89,2.89,0,0,0,1.19,2.59A7.17,7.17,0,0,0,275.54,75.7Z"/><path class="cls-1" d="M312.48,66.58V81.51h1.73v7H311V84.23H296.43V88.5H293.2v-7h1.68c1.77-1.72,2.66-4.42,2.66-8.08V66.58Zm-11.71,2.74v4.11a15.14,15.14,0,0,1-2.16,8.08h10.65V69.32Z"/><path class="cls-1" d="M316,75.36q0-4.73,2.62-6.94t8.1-2.23q5.49,0,8.12,2.23t2.63,6.94q0,4.76-2.63,7t-8.12,2.25q-5.49,0-8.1-2.25T316,75.36Zm5,5q1.77,1.5,5.76,1.5c2.68,0,4.6-.5,5.77-1.52s1.78-2.69,1.78-5-.6-4-1.78-5-3.07-1.47-5.77-1.47-4.61.49-5.76,1.47-1.76,2.62-1.76,5S319.75,79.38,320.92,80.39Z"/><path class="cls-1" d="M344,73.36h5.56q7.75,0,7.75,5.41t-7.75,5.46h-8.89V66.58h15.19v2.71H344Zm0,8.18h5.56a6.41,6.41,0,0,0,3.35-.68,2.32,2.32,0,0,0,1.07-2.14,2.17,2.17,0,0,0-1.07-2,6.66,6.66,0,0,0-3.35-.65H344Z"/><path class="cls-1" d="M360.14,84.23V66.58h3.2v6.57h5.77a9.22,9.22,0,0,1,5.5,1.34,4.82,4.82,0,0,1,1.79,4.13,5,5,0,0,1-1.79,4.24,9.07,9.07,0,0,1-5.5,1.37Zm9-8.33h-5.77v5.61h5.77a5.54,5.54,0,0,0,3.13-.68,2.54,2.54,0,0,0,1-2.21,2.31,2.31,0,0,0-1-2.1A6,6,0,0,0,369.11,75.9Zm13.31,8.33h-3.2V66.58h3.2Z"/><path class="cls-1" d="M398.65,74.88v-8.3h3.18V84.23h-3.18V77.8a13.33,13.33,0,0,1-6,1.07,8,8,0,0,1-5.28-1.52,5.64,5.64,0,0,1-1.8-4.55V66.58h3.17v6.14q0,3.44,4.65,3.43A9.17,9.17,0,0,0,398.65,74.88Z"/><path class="cls-1" d="M424.16,84.23h-3.28l-1.58-4.47H409.14l-1.57,4.47h-3.26l6.2-17.65H418ZM412.83,69.32,410.11,77h8.25l-2.72-7.72Z"/></svg>