<svg id="Layer_1" data-name="Layer 1" xmlns="http://www.w3.org/2000/svg" viewBox="93 21 780 100"><defs></defs><polygon class="cls-1" points="127.09 66.54 133.23 66.54 133.23 84.09 130.05 84.09 130.05 69.27 129.19 69.27 122.45 84.09 118.79 84.09 112.04 69.27 111.21 69.27 111.21 84.09 108.03 84.09 108.03 66.54 114.16 66.54 120.68 80.94 127.09 66.54"/><path class="cls-1" d="M96.23,24.71h48.9V95.85H96.23ZM93.07,99h55.22V21.55H93.07Z"/><path class="cls-1" d="M185,84h-3.28l-1.58-4.47H169.94L168.37,84h-3.25l6.2-17.66h7.46ZM173.63,69l-2.72,7.72h8.26L176.45,69Z"/><path class="cls-1" d="M187.45,84V66.29h13.74V69H190.67V84Z"/><path class="cls-1" d="M207.34,84h-3.2V66.29h7c3,0,5.13.51,6.56,1.53a5.31,5.31,0,0,1,2.13,4.64,5.46,5.46,0,0,1-2.13,4.73c-1.43,1-3.61,1.55-6.56,1.55h-3.83Zm0-14.91v7h3.86a7.88,7.88,0,0,0,4.19-.84,3,3,0,0,0,1.27-2.72,2.85,2.85,0,0,0-1.27-2.62,8.14,8.14,0,0,0-4.19-.8Z"/><path class="cls-1" d="M222.1,75.08c0-3.15.87-5.46,2.61-7s4.45-2.22,8.11-2.22,6.36.74,8.11,2.22,2.63,3.8,2.63,7-.87,5.5-2.63,7-4.46,2.25-8.11,2.25-6.36-.75-8.11-2.25S222.1,78.25,222.1,75.08Zm5,5q1.78,1.5,5.77,1.5c2.67,0,4.6-.51,5.76-1.52s1.78-2.69,1.78-5-.59-4-1.78-5-3.07-1.48-5.76-1.48-4.62.5-5.77,1.48-1.75,2.61-1.75,5S225.88,79.09,227.05,80.11Z"/><path class="cls-1" d="M246.76,66.29h16.49V84h-3.2V69H250V84h-3.21Z"/><path class="cls-1" d="M270.41,84h-3.2V66.29h7q4.42,0,6.55,1.53a5.3,5.3,0,0,1,2.14,4.64,5.44,5.44,0,0,1-2.14,4.73q-2.13,1.55-6.55,1.55h-3.84Zm0-14.91v7h3.87a7.9,7.9,0,0,0,4.19-.84,3,3,0,0,0,1.27-2.72,2.87,2.87,0,0,0-1.27-2.62,8.16,8.16,0,0,0-4.19-.8Z"/><path class="cls-1" d="M300.34,84h-14.4V66.29h14.22V69h-11v4.42H299.3v2.72H289.14v5.1h11.2Z"/><path class="cls-1" d="M321.47,66.29V81.23h1.73v7H320V84H305.42v4.26h-3.23v-7h1.68q2.67-2.6,2.67-8.08V66.29ZM309.76,69v4.11a15.19,15.19,0,0,1-2.16,8.08h10.65V69Z"/><path class="cls-1" d="M326.23,66.29h16.48V84h-3.2V69H329.43V84h-3.2Z"/><path class="cls-1" d="M349.88,84h-3.2V66.29h7c3,0,5.13.51,6.56,1.53a5.31,5.31,0,0,1,2.13,4.64,5.46,5.46,0,0,1-2.13,4.73c-1.43,1-3.61,1.55-6.56,1.55h-3.83Zm0-14.91v7h3.86a7.9,7.9,0,0,0,4.19-.84,3,3,0,0,0,1.27-2.72,2.85,2.85,0,0,0-1.27-2.62,8.16,8.16,0,0,0-4.19-.8Z"/><path class="cls-1" d="M379.22,66.29h5.71V84h-3.2V69.09h-.84L371.11,84H365.4V66.29h3.2V81.13h.86Z"/><path class="cls-1" d="M397.1,66.29h7.62V84H401.5V78.1h-2.21L391.92,84H387.4l7.41-6q-6-.77-6-6Q388.82,66.3,397.1,66.29Zm0,9.12h4.4V69h-4.4a8,8,0,0,0-3.85.69,2.49,2.49,0,0,0-1.18,2.3,2.88,2.88,0,0,0,1.18,2.59A7.12,7.12,0,0,0,397.1,75.41Z"/><path class="cls-1" d="M417.2,84H414V69h-6.48V66.29H423.7V69h-6.5Z"/><path class="cls-1" d="M440.26,66.29H446V84h-3.2V69.09h-.84L432.16,84h-5.72V66.29h3.2V81.13h.87Z"/><path class="cls-1" d="M458.15,66.29h7.62V84h-3.23V78.1h-2.21L453,84h-4.52l7.42-6q-6-.77-6-6Q449.86,66.3,458.15,66.29Zm0,9.12h4.39V69h-4.39a8,8,0,0,0-3.85.69,2.47,2.47,0,0,0-1.18,2.3,2.86,2.86,0,0,0,1.18,2.59A7.12,7.12,0,0,0,458.15,75.41Z"/></svg>