<svg width="212" height="54" viewBox="0 0 212 54" fill="none" xmlns="http://www.w3.org/2000/svg">
<g clip-path="url(#clip0_1_5)">
<path d="M23.6 31.2H27.85V43.38H25.65V33.1H25.05L20.37 43.38H17.83L13.16 33.1H12.58V43.38H10.37V31.2H14.63L19.15 41.19L23.6 31.2Z" fill="white"/>
<path d="M2.19 2.19H36.11V51.53H2.19V2.19ZM0 53.72H38.3V0H0V53.72Z" fill="white"/>
<path d="M63.94 10.38H68.2V22.55H65.99V12.27H65.4L60.72 22.55H58.18L53.5 12.27H52.93V22.55H50.72V10.38H54.97L59.49 20.36L63.94 10.38Z" fill="white"/>
<path d="M77.1 12.27L75.23 17.59H80.92L79.05 12.27H77.11H77.1ZM84.91 22.55H82.65L81.56 19.47H74.56L73.48 22.55H71.24L75.51 10.38H80.66L84.92 22.55H84.91Z" fill="white"/>
<path d="M97.27 15.28V10.38H99.48V22.55H97.27V17.17H90.14V22.55H87.94V10.38H90.14V15.28H97.27Z" fill="white"/>
<path d="M103.52 22.55V10.38H113V12.27H105.75V22.55H103.52Z" fill="white"/>
<path d="M119.8 12.27L117.93 17.59H123.62L121.75 12.27H119.81H119.8ZM127.61 22.55H125.35L124.26 19.47H117.26L116.17 22.55H113.93L118.2 10.38H123.35L127.61 22.55Z" fill="white"/>
<path d="M140.53 15.91V16.35C142.23 16.77 143.09 17.76 143.09 19.31C143.09 21.64 140.88 22.81 136.45 22.81C134.19 22.81 132.49 22.49 131.38 21.84C130.26 21.19 129.64 20.19 129.5 18.82H131.74C131.9 20.24 133.46 20.96 136.42 20.96C139.38 20.96 140.85 20.32 140.85 19.05C140.85 17.78 139.37 17.18 136.42 17.18H133.65V15.31H136.42C137.81 15.31 138.82 15.18 139.46 14.91C140.1 14.64 140.41 14.22 140.41 13.65C140.41 12.55 139.08 12 136.42 12C135.03 12 133.99 12.17 133.29 12.52C132.6 12.86 132.21 13.4 132.13 14.14H129.91C130.04 12.76 130.63 11.75 131.68 11.1C132.73 10.45 134.32 10.13 136.46 10.13C140.56 10.13 142.61 11.23 142.61 13.44C142.61 14.75 141.92 15.58 140.54 15.93" fill="white"/>
<path d="M156.49 22.55H146.56V10.38H156.37V12.25H148.76V15.3H155.77V17.17H148.76V20.69H156.49V22.55Z" fill="white"/>
<path d="M165.84 16.67H168.87V12.27H165.84C164.61 12.27 163.73 12.43 163.19 12.75C162.65 13.07 162.38 13.6 162.38 14.33C162.38 15.16 162.65 15.75 163.19 16.12C163.73 16.48 164.62 16.66 165.84 16.66M165.84 10.37H171.09V22.54H168.87V18.51H167.35L162.27 22.54H159.15L164.26 18.42C161.5 18.07 160.13 16.7 160.13 14.32C160.13 11.68 162.03 10.36 165.84 10.36" fill="white"/>
<path d="M56.4 43.35H54.19V33.07H49.72V31.18H60.87V33.07H56.39V43.35H56.4Z" fill="white"/>
<path d="M74.01 43.35H64.08V31.18H73.89V33.05H66.29V36.1H73.29V37.97H66.29V41.49H74.01V43.35Z" fill="white"/>
<path d="M89.65 43.35H87.2L84.17 37.97H82.37L79.32 43.35H76.87L80.46 37.06L77.15 31.18H79.6L82.31 36.08H84.2L86.91 31.18H89.38L86.07 37.08L89.64 43.35H89.65Z" fill="white"/>
<path d="M102.19 36.08V31.18H104.4V43.35H102.19V37.97H95.06V43.35H92.85V31.18H95.06V36.08H102.19Z" fill="white"/>
<path d="M107.91 37.24C107.91 35.07 108.51 33.47 109.71 32.45C110.91 31.43 112.77 30.92 115.3 30.92C117.83 30.92 119.69 31.43 120.89 32.45C122.09 33.47 122.7 35.07 122.7 37.24C122.7 39.41 122.1 41.03 120.89 42.06C119.68 43.09 117.82 43.61 115.3 43.61C112.78 43.61 110.92 43.09 109.71 42.06C108.5 41.03 107.91 39.42 107.91 37.24ZM111.32 40.71C112.14 41.4 113.46 41.74 115.29 41.74C117.12 41.74 118.46 41.39 119.26 40.69C120.08 39.99 120.49 38.84 120.49 37.24C120.49 35.64 120.08 34.5 119.26 33.83C118.47 33.15 117.14 32.81 115.29 32.81C113.44 32.81 112.11 33.15 111.32 33.83C110.51 34.5 110.11 35.63 110.11 37.24C110.11 38.85 110.51 40.01 111.32 40.71Z" fill="white"/>
<path d="M127.54 31.18H137.87V43.35H135.66V33.05H129.72V36.03C129.72 38.63 129.32 40.55 128.53 41.77C127.74 43 126.48 43.61 124.77 43.61V41.74C125.72 41.69 126.41 41.21 126.86 40.3C127.31 39.38 127.53 37.96 127.53 36.04V31.19L127.54 31.18Z" fill="white"/>
<path d="M141.39 37.24C141.39 35.07 141.99 33.47 143.19 32.45C144.39 31.43 146.25 30.92 148.78 30.92C151.31 30.92 153.17 31.43 154.37 32.45C155.57 33.47 156.18 35.07 156.18 37.24C156.18 39.41 155.58 41.03 154.37 42.06C153.16 43.09 151.3 43.61 148.78 43.61C146.26 43.61 144.4 43.09 143.19 42.06C141.98 41.03 141.39 39.42 141.39 37.24ZM144.8 40.71C145.62 41.4 146.94 41.74 148.77 41.74C150.6 41.74 151.94 41.39 152.74 40.69C153.56 39.99 153.97 38.84 153.97 37.24C153.97 35.64 153.56 34.5 152.74 33.83C151.95 33.15 150.62 32.81 148.77 32.81C146.92 32.81 145.59 33.15 144.8 33.83C143.99 34.5 143.59 35.63 143.59 37.24C143.59 38.85 143.99 40.01 144.8 40.71Z" fill="white"/>
<path d="M171.58 31.18V41.48H172.77V46.3H170.55V43.36H160.52V46.3H158.3V41.48H159.46C160.69 40.29 161.3 38.43 161.3 35.91V31.18H171.6H171.58ZM163.51 33.07V35.91C163.51 38 163.01 39.86 162.02 41.48H169.36V33.08H163.51V33.07Z" fill="white"/>
<path d="M194.61 43.35H192.16L189.1 37.97H186.07V43.35H183.86V37.97H180.83L177.78 43.35H175.33L178.92 37.08L175.61 31.18H178.06L180.77 36.08H183.85V31.18H186.06V36.08H189.16L191.87 31.18H194.34L191.05 37.08L194.6 43.35H194.61Z" fill="white"/>
<path d="M207.34 31.18H211.28V43.35H209.07V33.11H208.49L201.75 43.35H197.81V31.18H200.02V41.41H200.62L207.34 31.18Z" fill="white"/>
</g>
<defs>
<clipPath id="clip0_1_5">
<rect width="211.28" height="53.72" fill="white"/>
</clipPath>
</defs>
</svg>
